<?xml version="1.0" encoding="iso-8859-1"?>
<!-- Generator: Adobe Illustrator 19.0.0, SVG Export Plug-In . SVG Version: 6.00 Build 0)  -->
<svg version="1.1" id="Layer_1" xmlns="http://www.w3.org/2000/svg" xmlns:xlink="http://www.w3.org/1999/xlink" x="0px" y="0px"
	 viewBox="0 0 297.001 297.001" style="enable-background:new 0 0 297.001 297.001;" xml:space="preserve">
<g>
	<g>
		<g>
			<path d="M220.879,138.078l2.194-36.772h6.967c5.458,0,9.884-4.425,9.884-9.884V67.619c0-19.301-15.703-35.004-35.004-35.004
				h-30.227V9.884c0-5.458-4.425-9.884-9.884-9.884H99.578c-5.458,0-9.884,4.425-9.884,9.884v22.732H59.466
				c-19.301,0-35.004,15.703-35.004,35.004v23.803c0,5.458,4.425,9.884,9.884,9.884h6.967l11.124,186.399
				c0.312,5.221,4.637,9.295,9.866,9.295h139.78c5.229,0,9.554-4.074,9.866-9.295l1.938-32.467
				c32.355-0.085,58.652-26.429,58.652-58.804C272.539,166.429,249.945,141.617,220.879,138.078z M109.461,19.767h45.464v12.849
				h-45.464V19.767z M44.23,81.539v-13.92c0-8.401,6.835-15.236,15.236-15.236h145.453c8.402,0,15.237,6.835,15.237,15.236v13.92
				H44.23z M203.241,101.8l-2.221,37.228c-3.462,0.766-6.815,1.827-10.02,3.175V101.8H203.241z M73.386,277.233h-1.772L61.145,101.8
				h12.241V277.233z M104.837,277.233H93.153V101.306h11.684V277.233z M139.782,277.233h-15.179V101.8h15.179V277.233z
				 M159.549,101.306h11.684v54.547c-4.892,5.121-8.882,11.11-11.684,17.725V101.306z M171.234,277.234H159.55v-0.001v-57.94
				c2.801,6.615,6.792,12.604,11.684,17.725V277.234z M192.773,277.233H191v-26.566c1.077,0.453,2.174,0.865,3.283,1.255
				L192.773,277.233z M213.732,235.475c-21.527,0-39.04-17.513-39.04-39.04c0-21.527,17.513-39.04,39.04-39.04
				c21.527,0,39.04,17.513,39.04,39.04C252.772,217.962,235.259,235.475,213.732,235.475z"/>
			<path d="M237.029,173.138c-3.861-3.859-10.117-3.859-13.978,0l-9.319,9.319l-9.319-9.319c-3.861-3.859-10.117-3.859-13.978,0
				c-3.86,3.86-3.86,10.118,0,13.978l9.319,9.319l-9.319,9.319c-3.86,3.86-3.86,10.118,0,13.978c1.93,1.929,4.459,2.895,6.989,2.895
				c2.53,0,5.059-0.965,6.989-2.895l9.319-9.319l9.319,9.319c1.93,1.929,4.459,2.895,6.989,2.895c2.53,0,5.059-0.965,6.989-2.895
				c3.86-3.86,3.86-10.118,0-13.978l-9.319-9.319l9.319-9.319C240.889,183.256,240.889,176.998,237.029,173.138z"/>
		</g>
	</g>
</g>
<g>
</g>
<g>
</g>
<g>
</g>
<g>
</g>
<g>
</g>
<g>
</g>
<g>
</g>
<g>
</g>
<g>
</g>
<g>
</g>
<g>
</g>
<g>
</g>
<g>
</g>
<g>
</g>
<g>
</g>
</svg>
